<svg width="44" height="44" viewBox="0 0 44 44" fill="none" xmlns="http://www.w3.org/2000/svg">
<path d="M2.88994 42.0109C4.82898 43.2414 7.12909 43.954 9.59564 43.954C16.5167 43.954 22.1274 38.3434 22.1274 31.4223C22.1274 27.6414 20.453 24.2516 17.8053 21.9539C20.453 19.6562 22.1274 16.2664 22.1274 12.4855C22.1274 5.92924 17.0926 0.54889 10.6785 -6.10352e-05L2.88994 42.0109Z" fill="black"/>
<path d="M22.0708 43.8484C34.1885 43.8102 44 33.9751 44 21.8484C44 12.4504 38.1072 4.42875 29.8149 1.27682L22.0708 43.8484Z" fill="black"/>
<path d="M6.23741 6.50106C2.37756 10.4647 0 15.8789 0 21.8485C0 24.9862 0.656881 27.9705 1.84063 30.6714L4.03902 18.5862L6.23741 6.50106Z" fill="black"/>
<path d="M30.6331 42.0901C38.4922 38.7339 44 30.9344 44 21.8484C44 12.7625 38.4922 4.96297 30.6331 1.60677V42.0901Z" fill="black"/>
</svg>
